<svg xmlns="http://www.w3.org/2000/svg" viewBox="0 0 191.42 36.92"><defs><style>.cls-1{fill:#12263c;}.cls-2{fill:#f5b83d;}</style></defs><title>Logo</title><g id="Layer_2" data-name="Layer 2"><g id="Layer_1-2" data-name="Layer 1"><path class="cls-1" d="M16,2.29h2.61v24A11.36,11.36,0,0,1,16,34a8.53,8.53,0,0,1-6.76,2.88,8.93,8.93,0,0,1-6.88-2.6A10.33,10.33,0,0,1,0,27H2.59a7.85,7.85,0,0,0,1.76,5.57,6.43,6.43,0,0,0,4.93,1.86,6,6,0,0,0,4.78-2.15A8.91,8.91,0,0,0,16,26.43Z"/><path class="cls-1" d="M24.3,23.9a14.22,14.22,0,0,1,1.36-6.31,10.2,10.2,0,0,1,9.46-5.93A10,10,0,0,1,43,15.06a13.11,13.11,0,0,1,3,9v.56A14.4,14.4,0,0,1,44.63,31a10.12,10.12,0,0,1-3.82,4.34,10.51,10.51,0,0,1-5.64,1.53,10,10,0,0,1-7.85-3.4,13.07,13.07,0,0,1-3-9Zm2.69.74a11,11,0,0,0,2.26,7.15,7.22,7.22,0,0,0,5.92,2.8,7.19,7.19,0,0,0,5.89-2.8,11.34,11.34,0,0,0,2.26-7.37V23.9a12.33,12.33,0,0,0-1-5.1,8.31,8.31,0,0,0-2.9-3.58A7.36,7.36,0,0,0,35.12,14a7.18,7.18,0,0,0-5.86,2.82A11.43,11.43,0,0,0,27,24.15Z"/><path class="cls-1" d="M54.21,16.22a9.54,9.54,0,0,1,3.4-3.37,8.89,8.89,0,0,1,4.51-1.19q3.92,0,5.82,2.2t1.93,6.6V36.41H67.2v-16a7.48,7.48,0,0,0-1.38-4.85A5.44,5.44,0,0,0,61.47,14a6.75,6.75,0,0,0-4.41,1.57,9.18,9.18,0,0,0-2.85,4.21V36.41H51.54V1.91h2.67Z"/><path class="cls-1" d="M79.35,12.11l.09,4.15a9.63,9.63,0,0,1,3.41-3.42,8.84,8.84,0,0,1,4.52-1.18q3.9,0,5.82,2.2t1.93,6.6V36.41H92.44v-16a7.37,7.37,0,0,0-1.38-4.85A5.4,5.4,0,0,0,86.72,14a6.76,6.76,0,0,0-4.42,1.57,9.17,9.17,0,0,0-2.84,4.21V36.41H76.79V12.11Z"/><path class="cls-2" d="M133.4,18.21a18,18,0,0,1-.64,4.83,18.4,18.4,0,0,1-1.84,4.34,18.94,18.94,0,0,1-2.85,3.69,18.13,18.13,0,0,1-8,4.69,17.93,17.93,0,0,1-4.83.65h-11V0h11a18.14,18.14,0,0,1,9.19,2.49,18.21,18.21,0,0,1,3.68,2.85A18.94,18.94,0,0,1,130.92,9a18.4,18.4,0,0,1,1.84,4.34A18,18,0,0,1,133.4,18.21Zm-7.28,0a10.82,10.82,0,0,0-.85-4.25,11,11,0,0,0-2.34-3.46,11.19,11.19,0,0,0-3.48-2.35,10.69,10.69,0,0,0-4.25-.86h-3.63V29.12h3.63a10.68,10.68,0,0,0,4.25-.85,10.8,10.8,0,0,0,3.48-2.33,11,11,0,0,0,2.34-3.48A10.86,10.86,0,0,0,126.12,18.21Z"/><path class="cls-2" d="M163.77,22.57a14.63,14.63,0,0,1-1.09,5.68,14.29,14.29,0,0,1-3,4.54,13.8,13.8,0,0,1-4.41,3,13.71,13.71,0,0,1-10.81,0,13.84,13.84,0,0,1-4.42-3,14,14,0,0,1-3-4.54,14.63,14.63,0,0,1-1.1-5.68,14.86,14.86,0,0,1,1.1-5.74,13.81,13.81,0,0,1,7.4-7.56,13.39,13.39,0,0,1,5.39-1.09,14.32,14.32,0,0,1,5.42,1,13.22,13.22,0,0,1,4.41,2.92,14,14,0,0,1,3,4.55A15.35,15.35,0,0,1,163.77,22.57Zm-7,0a7.94,7.94,0,0,0-.55-3,7.19,7.19,0,0,0-1.48-2.34,6.52,6.52,0,0,0-2.2-1.5,7.17,7.17,0,0,0-5.36,0A6.35,6.35,0,0,0,145,17.2a7.14,7.14,0,0,0-1.46,2.34,8.13,8.13,0,0,0-.53,3,7.74,7.74,0,0,0,.53,2.92A7.36,7.36,0,0,0,145,27.83a6.8,6.8,0,0,0,2.18,1.56,6.42,6.42,0,0,0,2.68.57,6.74,6.74,0,0,0,4.88-2,7,7,0,0,0,1.48-2.34A8,8,0,0,0,156.79,22.57Z"/><path class="cls-2" d="M178.42,29.76a3.87,3.87,0,0,0,.81.16,7.38,7.38,0,0,0,.82,0,7,7,0,0,0,3.72-1.08,6.34,6.34,0,0,0,1.47-1.27,6.66,6.66,0,0,0,1-1.66l5.08,5.1a13.38,13.38,0,0,1-2.22,2.47,14.34,14.34,0,0,1-2.72,1.85,13.19,13.19,0,0,1-3.07,1.15,13.57,13.57,0,0,1-3.31.4,13.76,13.76,0,0,1-9.82-4,14,14,0,0,1-3-4.53,14.88,14.88,0,0,1-1.09-5.78,15.37,15.37,0,0,1,1.09-5.89,13.53,13.53,0,0,1,3-4.54,13.36,13.36,0,0,1,4.42-2.92,13.93,13.93,0,0,1,5.4-1,13.65,13.65,0,0,1,3.32.4,14.05,14.05,0,0,1,3.09,1.17,14.22,14.22,0,0,1,2.73,1.87,13.77,13.77,0,0,1,2.23,2.47ZM182,15.46a4.32,4.32,0,0,0-1-.23c-.31,0-.64-.05-1-.05a7,7,0,0,0-2.68.52,6.5,6.5,0,0,0-2.19,1.49,7.22,7.22,0,0,0-1.46,2.32,8.47,8.47,0,0,0-.53,3.06c0,.26,0,.54,0,.87s.07.64.12,1,.14.65.22,1a4.28,4.28,0,0,0,.33.81Z"/></g></g></svg>