<svg xmlns="http://www.w3.org/2000/svg" viewBox="0 0 157.5 40"><defs><style>.cls-1{fill:#1a1a1a;}.cls-2{fill:#e9b949;}</style></defs><title>Logo</title><g id="Layer_2" data-name="Layer 2"><g id="Logo"><path class="cls-1" d="M13.09.05l-.15.88-.19.2a14.16,14.16,0,0,0-1.5.08,2.12,2.12,0,0,0-1.16.41,4.21,4.21,0,0,0-.74.89,4.34,4.34,0,0,0-.44,1.92c0,.46-.06.89-.08,1.28s0,.86-.05,1.38,0,1.17,0,1.92V24c0,.8,0,1.48,0,2s0,1,0,1.45v1.16a17.58,17.58,0,0,1-.44,3.89A14.9,14.9,0,0,1,7,36a8.68,8.68,0,0,1-2,2.58A5.91,5.91,0,0,1,2.26,39.9a3.38,3.38,0,0,1-.88.1H.49L.1,39.86,0,38.79l.2-.27H1.33a2.63,2.63,0,0,0,1-.19,5.46,5.46,0,0,0,1.13-.89c.92-.92,1.46-2.63,1.6-5.12s.23-5.95.23-10.35V9.06c0-.78,0-1.46,0-2s0-1,0-1.43,0-.78-.07-1.18a4.69,4.69,0,0,0-.44-1.89,4,4,0,0,0-.74-.92,2.13,2.13,0,0,0-1.13-.41,13.77,13.77,0,0,0-1.48-.08L1.08.93.94.05,1,0H13Z"/><path class="cls-1" d="M24.49,9.62a10.84,10.84,0,0,1,4.45.86,9.52,9.52,0,0,1,3.29,2.36,10.51,10.51,0,0,1,2,3.44,12,12,0,0,1,.7,4.1,12.22,12.22,0,0,1-.68,4.08,10.31,10.31,0,0,1-2,3.48,10,10,0,0,1-3.35,2.42,11.15,11.15,0,0,1-4.63.91,10.67,10.67,0,0,1-4.47-.87,9.42,9.42,0,0,1-3.2-2.32,9.65,9.65,0,0,1-1.94-3.39A12.92,12.92,0,0,1,14,20.6a12.75,12.75,0,0,1,.71-4.27,10.06,10.06,0,0,1,2-3.49,9.47,9.47,0,0,1,3.3-2.36A10.73,10.73,0,0,1,24.49,9.62Zm0,20a7.73,7.73,0,0,0,3.41-.72,7.36,7.36,0,0,0,2.51-2A8.68,8.68,0,0,0,32,24a11.79,11.79,0,0,0,0-7.15,8.92,8.92,0,0,0-1.62-2.9A7.46,7.46,0,0,0,27.74,12a8.22,8.22,0,0,0-3.44-.69A7.74,7.74,0,0,0,21,12a7,7,0,0,0-2.45,1.91A8.12,8.12,0,0,0,17,16.77a12.55,12.55,0,0,0-.5,3.61,11.74,11.74,0,0,0,.58,3.84,8.26,8.26,0,0,0,1.63,2.88,7.27,7.27,0,0,0,2.52,1.83A7.85,7.85,0,0,0,24.46,29.57Z"/><path class="cls-1" d="M58.1,31H50.31l-.06,0,.09-.58.13-.12c.34,0,.67,0,1-.05A1.41,1.41,0,0,0,52.2,30a2.27,2.27,0,0,0,.47-.57,3.31,3.31,0,0,0,.3-1.25c0-.15,0-.33.05-.53s0-.45,0-.75,0-.66,0-1.09V20.47H41.66v4.92c0,.48,0,.88,0,1.2s0,.59,0,.82,0,.46,0,.72a2.84,2.84,0,0,0,.29,1.25,2.3,2.3,0,0,0,.48.57,1.41,1.41,0,0,0,.75.28c.31,0,.63.05,1,.05l.12.12.1.58-.06,0H36.63l-.06,0,.09-.58.16-.12a9.45,9.45,0,0,0,1-.05,1.4,1.4,0,0,0,.74-.28,2.87,2.87,0,0,0,.5-.57,2.69,2.69,0,0,0,.3-1.25c0-.15,0-.33,0-.53s0-.45,0-.75,0-.66,0-1.09v-10c0-.52,0-.95,0-1.32s0-.67,0-.93,0-.51-.05-.77A2.9,2.9,0,0,0,39,11.52a2.67,2.67,0,0,0-.48-.59,1.4,1.4,0,0,0-.74-.27,9.45,9.45,0,0,0-1-.05l-.16-.13-.09-.58.06,0h7.79l.06,0-.1.58-.12.13c-.35,0-.67,0-1,.05a1.4,1.4,0,0,0-.75.27,2.36,2.36,0,0,0-.48.58,2.79,2.79,0,0,0-.29,1.24c0,.3,0,.58,0,.84s0,.55,0,.89,0,.76,0,1.25v3.33H53.07V15.77c0-.52,0-.95,0-1.32s0-.67,0-.93,0-.51-.05-.77a2.79,2.79,0,0,0-.29-1.24,2.6,2.6,0,0,0-.48-.58,1.4,1.4,0,0,0-.75-.27c-.31,0-.64-.05-1-.05l-.13-.13-.09-.58.06,0H58.1l.06,0-.09.58-.16.13a9.66,9.66,0,0,0-1,.05,1.36,1.36,0,0,0-.73.27,3,3,0,0,0-.5.58,2.64,2.64,0,0,0-.3,1.24c0,.3,0,.58,0,.84s0,.55,0,.89V26.59c0,.32,0,.59,0,.82s0,.46,0,.72a2.69,2.69,0,0,0,.3,1.25,2.87,2.87,0,0,0,.5.57,1.37,1.37,0,0,0,.73.28,9.66,9.66,0,0,0,1,.05l.16.12.09.58Z"/><path class="cls-1" d="M80.94,9.9l-.06.57-.16.12c-.35,0-.67,0-1,.05a1.31,1.31,0,0,0-.72.27,2.53,2.53,0,0,0-.47.58,3.05,3.05,0,0,0-.27,1.25c0,.3,0,.58,0,.84s0,.55,0,.89,0,.76,0,1.25v7.54c0,1.19,0,2.17,0,2.94s0,1.43,0,2,0,1,.07,1.45.07.9.11,1.41l-.26.1h-2l-.32-.39L64.44,13.62c0,.21,0,.43,0,.64s0,.48,0,.79v9.48c0,.41,0,.84,0,1.29s0,.88,0,1.3,0,.75.05,1a3.23,3.23,0,0,0,.27,1.2,1.55,1.55,0,0,0,.53.62,1.41,1.41,0,0,0,.67.26,7.48,7.48,0,0,0,1.06.07l.16.12.09.58-.06,0H59.7l-.06,0,.09-.58.16-.12a8.83,8.83,0,0,0,1-.05,1.51,1.51,0,0,0,.72-.28,1.87,1.87,0,0,0,.46-.52,3.09,3.09,0,0,0,.34-1.3c0-.15,0-.33,0-.53s0-.46,0-.75V14.44c0-.36,0-.67,0-.93s0-.51,0-.77a3.28,3.28,0,0,0-.29-1.14,1.94,1.94,0,0,0-.51-.69,1.45,1.45,0,0,0-.72-.27,9.55,9.55,0,0,0-1-.05l-.16-.12-.09-.57.06-.12.66,0,.88.06.88.05.65,0h1.85a2.52,2.52,0,0,0,.75-.1l.16.1a7.48,7.48,0,0,0,.53,1.23c.27.52.59,1.1,1,1.75s.78,1.32,1.22,2,.88,1.45,1.33,2.15c1.62,2.61,3,4.73,4.24,6.37s2,2.72,2.33,3.21c0-.15,0-.29,0-.42s0-.28,0-.45V15.76c0-.52,0-1,0-1.32s0-.67,0-.93,0-.51-.05-.77a2.84,2.84,0,0,0-.29-1.25,2.85,2.85,0,0,0-.48-.58,1.49,1.49,0,0,0-.75-.27c-.31,0-.64-.05-1-.05l-.13-.12-.09-.57.06-.12.64,0,.85.06.85.05.64,0h2.15a8.51,8.51,0,0,0,.86,0l.87-.06.64-.06Z"/><path class="cls-2" d="M110.6,17.56a13,13,0,0,1-.48,3.54,13.18,13.18,0,0,1-1.35,3.18,13.89,13.89,0,0,1-2.08,2.7,13.73,13.73,0,0,1-2.7,2.09,13.41,13.41,0,0,1-6.73,1.82h-8V4.22h8a12.93,12.93,0,0,1,3.54.48A13.08,13.08,0,0,1,104,6.05a13.38,13.38,0,0,1,4.78,4.79,13.14,13.14,0,0,1,1.83,6.72Zm-5.34,0a7.72,7.72,0,0,0-.63-3.11,7.9,7.9,0,0,0-1.71-2.54,8.25,8.25,0,0,0-2.55-1.72,7.75,7.75,0,0,0-3.11-.63H94.6v16h2.66a7.75,7.75,0,0,0,3.11-.62,8,8,0,0,0,2.55-1.71,7.94,7.94,0,0,0,1.71-2.55A7.75,7.75,0,0,0,105.26,17.56Z"/><path class="cls-2" d="M135,19.63a12,12,0,0,1-.88,4.62,11.75,11.75,0,0,1-2.42,3.7,11.33,11.33,0,0,1-3.59,2.45,11.21,11.21,0,0,1-8.8,0A11.49,11.49,0,0,1,115.7,28a11.77,11.77,0,0,1-2.43-3.7,12,12,0,0,1-.89-4.62,12.14,12.14,0,0,1,.89-4.67,11.71,11.71,0,0,1,2.43-3.71,11.49,11.49,0,0,1,3.6-2.45,11,11,0,0,1,4.39-.89,11.54,11.54,0,0,1,4.41.84,10.68,10.68,0,0,1,3.59,2.38,11.31,11.31,0,0,1,2.42,3.7A12.55,12.55,0,0,1,135,19.63Zm-5.68,0a6.71,6.71,0,0,0-.44-2.47,5.89,5.89,0,0,0-1.21-1.9A5.23,5.23,0,0,0,125.87,14a5.87,5.87,0,0,0-4.36,0,5.1,5.1,0,0,0-1.78,1.22,5.84,5.84,0,0,0-1.19,1.9,6.71,6.71,0,0,0-.43,2.47,6.41,6.41,0,0,0,.43,2.38,6.06,6.06,0,0,0,1.19,1.9,5.67,5.67,0,0,0,1.78,1.27,5.2,5.2,0,0,0,2.18.46,5.47,5.47,0,0,0,4-1.65,5.78,5.78,0,0,0,1.21-1.9A6.77,6.77,0,0,0,129.31,19.63Z"/><path class="cls-2" d="M146.92,25.48a3.08,3.08,0,0,0,.66.13q.33,0,.66,0a5.27,5.27,0,0,0,1.59-.23,5.49,5.49,0,0,0,1.44-.65,5.12,5.12,0,0,0,1.2-1,6,6,0,0,0,.86-1.35l4.13,4.15a11.49,11.49,0,0,1-1.81,2A11,11,0,0,1,153.44,30a10.62,10.62,0,0,1-2.5.94,11.31,11.31,0,0,1-10.69-3,11.42,11.42,0,0,1-2.42-3.69,12,12,0,0,1-.89-4.7,12.35,12.35,0,0,1,.89-4.79,10.8,10.8,0,0,1,6-6.08,11.48,11.48,0,0,1,4.39-.85,11.18,11.18,0,0,1,2.71.34,11,11,0,0,1,2.51.95,11.75,11.75,0,0,1,2.22,1.51,10.91,10.91,0,0,1,1.82,2Zm2.89-11.64a3.72,3.72,0,0,0-.77-.18,6.91,6.91,0,0,0-.8,0,5.68,5.68,0,0,0-2.18.42,5.31,5.31,0,0,0-1.78,1.21,5.51,5.51,0,0,0-1.18,1.89,6.78,6.78,0,0,0-.44,2.49c0,.21,0,.44,0,.7a7.67,7.67,0,0,0,.11.8,6.17,6.17,0,0,0,.17.77,2.84,2.84,0,0,0,.27.66Z"/></g></g></svg>